<svg
  xmlns="http://www.w3.org/2000/svg"
  width="896"
  height="288"
  viewBox="0 0 896 288"
  fill="none"
>
  <style>
    * {
      transform-origin: center;
      transform-box: fill-box;
    }

    .animate-ping {
      animation: ping 1s cubic-bezier(0, 0, 0.2, 1) infinite;
    }

    .animate-fade-in {
      animation: fade-in 0.64s cubic-bezier(0, 0, 0.2, 1) forwards;
    }

    .animate-fade-in-bottom {
      animation: fade-in-bottom 0.64s cubic-bezier(0, 0, 0.2, 1) forwards;
    }

    .animate-fade-in-right {
      animation: fade-in-right 0.64s cubic-bezier(0, 0, 0.2, 1) forwards;
    }

    .title {
      opacity: 0;
      animation-delay: 0.4s;
    }

    .description {
      opacity: 0;
      animation-delay: 0.7s;
    }

    .additional {
      opacity: 0;
      animation-delay: 1s;
    }

    .additional__indicator {
      opacity: 0;
      animation-delay: 1.6s;
    }

    @keyframes ping {
      75%,
      100% {
        transform: scale(2);
        opacity: 0;
      }
    }

    @keyframes fade-in {
      from {
        opacity: 0;
      }
      to {
        opacity: 1;
      }
    }

    @keyframes fade-in-bottom {
      from {
        opacity: 0;
        transform: translate3d(0, -20px, 0);
      }
      to {
        opacity: 1;
        transform: translate3d(0, 0, 0);
      }
    }

    @keyframes fade-in-right {
      from {
        opacity: 0;
        transform: translate3d(-20px, 0, 0);
      }
      to {
        opacity: 1;
        transform: translate3d(0, 0, 0);
      }
    }
  </style>
  <g clip-path="url(#clip0_1_2)">
    <!-- #region background  -->
    <rect width="896" height="288" fill="url(#paint0_linear_1_2)" />
    <mask
      id="mask0_1_2"
      style="mask-type: alpha"
      maskUnits="userSpaceOnUse"
      x="0"
      y="0"
      width="896"
      height="288"
    >
      <rect width="896" height="288" fill="url(#paint1_linear_1_2)" />
    </mask>
    <g mask="url(#mask0_1_2)">
      <path
        d="M32.5001 0L32.5001 288M64.5001 0L64.5001 288M96.5001 0L96.5001 288M128.5 0L128.5 288M160.5 0L160.5 288M192.5 0L192.5 288M224.5 0L224.5 288M256.5 0V288M288.5 0V288M320.5 0V288M352.5 0V288M384.5 0V288M416.5 0V288M448.5 0V288M480.5 0V288M512.5 0V288M544.5 0V288M576.5 0V288M608.5 0V288M640.5 0V288M672.5 0V288M704.5 0V288M736.5 0V288M768.5 0V288M800.5 0V288M832.5 0V288M864.5 0V288M0 31.5H896M0 63.5H896M0 95.5H896M0 127.5H896M0 159.5H896M0 191.5H896M0 223.5H896M0 255.5H896"
        stroke="white"
        stroke-opacity="0.04"
        stroke-dasharray="5 5"
      />
    </g>
    <!-- #endregion -->

    <!-- #region title -->
    <g class="animate-fade-in-bottom title">
      <path
        d="M207.51 109.176H216.15V155H207.51V109.176ZM221.965 123.704L225.613 118.776C224.504 118.477 223.586 117.859 222.861 116.92C222.178 115.981 221.837 114.915 221.837 113.72C221.837 112.184 222.37 110.883 223.437 109.816C224.546 108.707 225.869 108.152 227.405 108.152C228.941 108.152 230.242 108.707 231.309 109.816C232.376 110.883 232.909 112.184 232.909 113.72C232.909 114.488 232.781 115.192 232.525 115.832C232.269 116.429 231.864 117.133 231.309 117.944L225.741 126.2L221.965 123.704ZM235.551 122.36H243.423V126.456H243.935C244.959 124.877 246.324 123.64 248.031 122.744C249.78 121.805 251.722 121.336 253.855 121.336C256.159 121.336 258.164 121.891 259.871 123C261.578 124.067 262.794 125.432 263.519 127.096C264.586 125.389 266.036 124.003 267.871 122.936C269.748 121.869 271.946 121.336 274.463 121.336C278.175 121.336 280.991 122.488 282.911 124.792C284.874 127.053 285.855 130.125 285.855 134.008V155H277.535V135.544C277.535 133.496 277.044 131.917 276.063 130.808C275.124 129.699 273.802 129.144 272.095 129.144C269.919 129.144 268.17 130.019 266.847 131.768C265.567 133.475 264.927 135.736 264.927 138.552V155H256.543V135.544C256.543 133.496 256.031 131.917 255.007 130.808C254.026 129.699 252.618 129.144 250.783 129.144C248.735 129.144 247.071 130.019 245.791 131.768C244.554 133.475 243.935 135.736 243.935 138.552V155H235.551V122.36ZM304.895 109.176H333.951V117.368H313.535V128.504H331.903V136.696H313.535V155H304.895V109.176ZM346.605 156.024C343.149 156.024 340.312 155.021 338.093 153.016C335.874 150.968 334.765 148.301 334.765 145.016C334.765 142.84 335.341 140.92 336.493 139.256C337.645 137.592 339.224 136.312 341.229 135.416C343.234 134.52 345.453 134.072 347.885 134.072C351.256 134.072 354.136 134.563 356.525 135.544V134.136C356.525 132.344 355.842 130.893 354.477 129.784C353.154 128.675 351.362 128.12 349.101 128.12C347.565 128.12 346.072 128.483 344.621 129.208C343.213 129.891 342.04 130.808 341.101 131.96L335.725 127.736C337.304 125.688 339.288 124.109 341.677 123C344.066 121.891 346.669 121.336 349.485 121.336C354.477 121.336 358.274 122.488 360.877 124.792C363.48 127.096 364.781 130.467 364.781 134.904V155H356.525V151.672H356.013C355.032 152.952 353.73 153.997 352.109 154.808C350.53 155.619 348.696 156.024 346.605 156.024ZM348.589 149.496C351.021 149.496 352.941 148.728 354.349 147.192C355.8 145.613 356.525 143.779 356.525 141.688C354.349 140.664 352.066 140.152 349.677 140.152C345.325 140.152 343.149 141.773 343.149 145.016C343.149 146.339 343.618 147.427 344.557 148.28C345.496 149.091 346.84 149.496 348.589 149.496ZM369.936 122.36H377.808V126.712H378.32C379.131 125.176 380.389 123.917 382.096 122.936C383.803 121.912 385.68 121.4 387.728 121.4C389.221 121.4 390.587 121.635 391.824 122.104V130.488C390.672 130.061 389.691 129.763 388.88 129.592C388.112 129.379 387.28 129.272 386.384 129.272C383.909 129.272 381.947 130.168 380.496 131.96C379.045 133.752 378.32 136.013 378.32 138.744V155H369.936V122.36ZM395.001 109.176H403.385V120.76L402.873 126.456H403.385C404.324 124.92 405.689 123.683 407.481 122.744C409.273 121.805 411.214 121.336 413.305 121.336C417.273 121.336 420.302 122.531 422.393 124.92C424.526 127.267 425.593 130.531 425.593 134.712V155H417.209V135.736C417.209 133.645 416.633 132.024 415.481 130.872C414.372 129.72 412.878 129.144 411.001 129.144C408.782 129.144 406.948 130.04 405.497 131.832C404.089 133.624 403.385 135.821 403.385 138.424V155H395.001V109.176ZM440.613 156.024C437.157 156.024 434.319 155.021 432.101 153.016C429.882 150.968 428.773 148.301 428.773 145.016C428.773 142.84 429.349 140.92 430.501 139.256C431.653 137.592 433.231 136.312 435.237 135.416C437.242 134.52 439.461 134.072 441.893 134.072C445.263 134.072 448.143 134.563 450.533 135.544V134.136C450.533 132.344 449.85 130.893 448.485 129.784C447.162 128.675 445.37 128.12 443.109 128.12C441.573 128.12 440.079 128.483 438.629 129.208C437.221 129.891 436.047 130.808 435.109 131.96L429.733 127.736C431.311 125.688 433.295 124.109 435.685 123C438.074 121.891 440.677 121.336 443.493 121.336C448.485 121.336 452.282 122.488 454.885 124.792C457.487 127.096 458.789 130.467 458.789 134.904V155H450.533V151.672H450.021C449.039 152.952 447.738 153.997 446.117 154.808C444.538 155.619 442.703 156.024 440.613 156.024ZM442.597 149.496C445.029 149.496 446.949 148.728 448.357 147.192C449.807 145.613 450.533 143.779 450.533 141.688C448.357 140.664 446.074 140.152 443.685 140.152C439.333 140.152 437.157 141.773 437.157 145.016C437.157 146.339 437.626 147.427 438.565 148.28C439.503 149.091 440.847 149.496 442.597 149.496ZM463.943 122.36H471.815V126.456H472.327C473.309 124.877 474.695 123.64 476.487 122.744C478.279 121.805 480.221 121.336 482.311 121.336C486.237 121.336 489.223 122.531 491.271 124.92C493.319 127.309 494.343 130.573 494.343 134.712V155H485.959V135.736C485.959 133.645 485.426 132.024 484.359 130.872C483.293 129.72 481.799 129.144 479.879 129.144C477.618 129.144 475.783 130.019 474.375 131.768C473.01 133.517 472.327 135.715 472.327 138.36V155H463.943V122.36ZM513.288 109.176H523.336L541.768 139.896H542.28L541.768 131.064V109.176H550.344V155H541.256L521.8 122.552H521.288L521.8 131.384V155H513.288V109.176ZM572.129 156.024C568.759 156.024 565.751 155.277 563.105 153.784C560.46 152.248 558.391 150.179 556.897 147.576C555.447 144.931 554.721 141.965 554.721 138.68C554.721 135.437 555.447 132.493 556.897 129.848C558.391 127.203 560.46 125.133 563.105 123.64C565.751 122.104 568.759 121.336 572.129 121.336C575.457 121.336 578.444 122.104 581.089 123.64C583.735 125.133 585.783 127.203 587.233 129.848C588.727 132.493 589.473 135.437 589.473 138.68C589.473 141.965 588.727 144.931 587.233 147.576C585.783 150.179 583.735 152.248 581.089 153.784C578.444 155.277 575.457 156.024 572.129 156.024ZM572.129 148.28C573.751 148.28 575.244 147.896 576.609 147.128C577.975 146.36 579.063 145.251 579.873 143.8C580.684 142.349 581.089 140.643 581.089 138.68C581.089 136.76 580.684 135.075 579.873 133.624C579.063 132.173 577.975 131.064 576.609 130.296C575.244 129.528 573.751 129.144 572.129 129.144C570.508 129.144 569.015 129.528 567.649 130.296C566.284 131.064 565.175 132.173 564.321 133.624C563.511 135.075 563.105 136.76 563.105 138.68C563.105 140.6 563.511 142.307 564.321 143.8C565.175 145.251 566.284 146.36 567.649 147.128C569.015 147.896 570.508 148.28 572.129 148.28ZM588.743 122.36H598.279L606.535 143.608H607.047L615.431 122.36H624.839L610.887 155H602.567L588.743 122.36ZM636.19 156.024C632.734 156.024 629.897 155.021 627.678 153.016C625.459 150.968 624.35 148.301 624.35 145.016C624.35 142.84 624.926 140.92 626.078 139.256C627.23 137.592 628.809 136.312 630.814 135.416C632.819 134.52 635.038 134.072 637.47 134.072C640.841 134.072 643.721 134.563 646.11 135.544V134.136C646.11 132.344 645.427 130.893 644.062 129.784C642.739 128.675 640.947 128.12 638.686 128.12C637.15 128.12 635.657 128.483 634.206 129.208C632.798 129.891 631.625 130.808 630.686 131.96L625.31 127.736C626.889 125.688 628.873 124.109 631.262 123C633.651 121.891 636.254 121.336 639.07 121.336C644.062 121.336 647.859 122.488 650.462 124.792C653.065 127.096 654.366 130.467 654.366 134.904V155H646.11V151.672H645.598C644.617 152.952 643.315 153.997 641.694 154.808C640.115 155.619 638.281 156.024 636.19 156.024ZM638.174 149.496C640.606 149.496 642.526 148.728 643.934 147.192C645.385 145.613 646.11 143.779 646.11 141.688C643.934 140.664 641.651 140.152 639.262 140.152C634.91 140.152 632.734 141.773 632.734 145.016C632.734 146.339 633.203 147.427 634.142 148.28C635.081 149.091 636.425 149.496 638.174 149.496ZM659.521 122.36H667.393V126.456H667.905C668.886 124.877 670.273 123.64 672.065 122.744C673.857 121.805 675.798 121.336 677.889 121.336C681.814 121.336 684.801 122.531 686.849 124.92C688.897 127.309 689.921 130.573 689.921 134.712V155H681.537V135.736C681.537 133.645 681.004 132.024 679.937 130.872C678.87 129.72 677.377 129.144 675.457 129.144C673.196 129.144 671.361 130.019 669.953 131.768C668.588 133.517 667.905 135.715 667.905 138.36V155H659.521V122.36Z"
        fill="#CBD5E1"
      />
    </g>
    <!-- #endregion -->

    <!-- #region description -->
    <g class="animate-fade-in-bottom description">
      <path
        d="M249.782 191.256C251.174 191.256 252.038 190.552 252.486 189.896H252.55V191H253.846V185.496C253.846 183.496 252.582 182.328 250.39 182.328C248.678 182.328 247.35 183.24 247.046 184.728L248.262 185.032C248.534 184.04 249.254 183.544 250.39 183.544C251.654 183.544 252.55 184.312 252.55 185.528V186.456C251.798 186.2 251.062 186.088 250.054 186.088C248.358 186.088 246.87 186.952 246.87 188.648C246.87 190.248 248.054 191.256 249.782 191.256ZM250.022 190.072C248.998 190.072 248.246 189.496 248.246 188.648C248.246 187.608 249.078 187.176 250.294 187.176C251.046 187.176 251.798 187.32 252.55 187.592C252.55 189.016 251.478 190.072 250.022 190.072ZM264.151 191.256C266.823 191.256 268.375 189.688 268.375 186.824V179.544H267.031V186.888C267.031 188.872 266.055 189.96 264.151 189.96C262.279 189.96 261.255 188.872 261.255 186.888V179.544H259.927V186.824C259.927 189.688 261.511 191.256 264.151 191.256ZM273.618 191.256C275.458 191.256 276.882 190.232 276.882 188.68C276.882 187.272 276.018 186.504 274.498 186.2L273.314 185.96C272.21 185.72 271.714 185.336 271.714 184.696C271.714 183.976 272.498 183.528 273.474 183.528C274.37 183.528 275.138 183.88 275.346 184.824L276.594 184.632C276.37 182.968 274.994 182.328 273.474 182.328C271.778 182.328 270.354 183.272 270.354 184.712C270.354 186.072 271.362 186.856 272.786 187.112L273.826 187.304C274.962 187.512 275.538 187.992 275.538 188.728C275.538 189.576 274.69 190.056 273.618 190.056C272.386 190.056 271.65 189.336 271.474 188.488L270.178 188.712C270.37 190.344 271.89 191.256 273.618 191.256ZM282.036 191.256C284.068 191.256 285.22 190.184 285.556 188.824L284.372 188.504C284.052 189.4 283.428 190.024 282.084 190.024C280.596 190.024 279.588 188.952 279.508 187.048H285.78C285.796 186.856 285.812 186.568 285.812 186.296C285.812 183.848 284.436 182.328 282.02 182.328C279.748 182.328 278.164 184.216 278.164 186.808C278.164 189.336 279.668 191.256 282.036 191.256ZM282.02 183.544C283.604 183.544 284.356 184.472 284.404 185.928H279.572C279.828 184.376 280.74 183.544 282.02 183.544ZM288.989 191V186.04C288.989 184.76 289.869 183.688 290.989 183.688C291.373 183.688 291.709 183.752 291.997 183.896V182.472C291.805 182.392 291.565 182.344 291.165 182.344C290.253 182.344 289.293 182.92 288.989 183.752H288.925V182.584H287.645V191H288.989ZM299.337 191V179.544H297.977V191H299.337ZM303.192 191V185.944C303.192 184.648 304.024 183.56 305.368 183.56C306.456 183.56 307.288 184.12 307.288 185.592V191H308.632V185.416C308.632 183.512 307.592 182.328 305.688 182.328C304.536 182.328 303.592 182.904 303.192 183.688H303.128V182.584H301.848V191H303.192ZM313.384 191.128C313.896 191.128 314.184 191.048 314.456 190.936V189.624C314.216 189.768 313.976 189.864 313.608 189.864C312.888 189.864 312.52 189.4 312.52 188.584V183.816H314.424V182.584H312.52V180.28H311.176V182.584H309.848V183.816H311.176V188.856C311.176 190.28 312.056 191.128 313.384 191.128ZM319.286 191.256C321.318 191.256 322.47 190.184 322.806 188.824L321.622 188.504C321.302 189.4 320.678 190.024 319.334 190.024C317.846 190.024 316.838 188.952 316.758 187.048H323.03C323.046 186.856 323.062 186.568 323.062 186.296C323.062 183.848 321.686 182.328 319.27 182.328C316.998 182.328 315.414 184.216 315.414 186.808C315.414 189.336 316.918 191.256 319.286 191.256ZM319.27 183.544C320.854 183.544 321.606 184.472 321.654 185.928H316.822C317.078 184.376 317.99 183.544 319.27 183.544ZM333.055 191V183.816H335.039V182.584H333.055V180.952C333.055 180.008 333.599 179.576 334.303 179.576C334.799 179.576 335.103 179.704 335.375 179.816V178.504C335.103 178.392 334.783 178.328 334.223 178.328C332.799 178.328 331.711 179.256 331.711 180.84V182.584H330.271V183.816H331.711V191H333.055ZM326.239 191V186.04C326.239 184.76 327.119 183.688 328.239 183.688C328.623 183.688 328.959 183.752 329.247 183.896V182.472C329.055 182.392 328.815 182.344 328.415 182.344C327.503 182.344 326.543 182.92 326.239 183.752H326.175V182.584H324.895V191H326.239ZM339.157 191.256C340.549 191.256 341.413 190.552 341.861 189.896H341.925V191H343.221V185.496C343.221 183.496 341.957 182.328 339.765 182.328C338.053 182.328 336.725 183.24 336.421 184.728L337.637 185.032C337.909 184.04 338.629 183.544 339.765 183.544C341.029 183.544 341.925 184.312 341.925 185.528V186.456C341.173 186.2 340.437 186.088 339.429 186.088C337.733 186.088 336.245 186.952 336.245 188.648C336.245 190.248 337.429 191.256 339.157 191.256ZM339.397 190.072C338.373 190.072 337.621 189.496 337.621 188.648C337.621 187.608 338.453 187.176 339.669 187.176C340.421 187.176 341.173 187.32 341.925 187.592C341.925 189.016 340.853 190.072 339.397 190.072ZM348.803 191.256C350.723 191.256 351.923 190.184 352.307 188.584L351.075 188.28C350.739 189.448 349.987 190.024 348.835 190.024C347.299 190.024 346.227 188.856 346.227 186.792C346.227 184.728 347.299 183.56 348.835 183.56C350.099 183.56 350.867 184.296 351.075 185.32L352.371 185.096C352.131 183.48 350.883 182.328 348.851 182.328C346.547 182.328 344.883 184.088 344.883 186.792C344.883 189.48 346.435 191.256 348.803 191.256ZM357.458 191.256C359.49 191.256 360.642 190.184 360.978 188.824L359.794 188.504C359.474 189.4 358.85 190.024 357.506 190.024C356.018 190.024 355.01 188.952 354.93 187.048H361.202C361.218 186.856 361.234 186.568 361.234 186.296C361.234 183.848 359.858 182.328 357.442 182.328C355.17 182.328 353.586 184.216 353.586 186.808C353.586 189.336 355.09 191.256 357.458 191.256ZM357.442 183.544C359.026 183.544 359.778 184.472 359.826 185.928H354.994C355.25 184.376 356.162 183.544 357.442 183.544ZM374.376 191V189.704H368.696V185.736H373.88V184.44H368.696V180.84H374.376V179.544H367.336V191H374.376ZM377.676 191V185.944C377.676 184.648 378.508 183.56 379.852 183.56C380.94 183.56 381.772 184.12 381.772 185.592V191H383.116V185.416C383.116 183.512 382.076 182.328 380.172 182.328C379.02 182.328 378.076 182.904 377.676 183.688H377.612V182.584H376.332V191H377.676ZM387.868 191.128C388.38 191.128 388.668 191.048 388.94 190.936V189.624C388.7 189.768 388.46 189.864 388.092 189.864C387.372 189.864 387.004 189.4 387.004 188.584V183.816H388.908V182.584H387.004V180.28H385.66V182.584H384.332V183.816H385.66V188.856C385.66 190.28 386.54 191.128 387.868 191.128ZM392.176 191V186.12C392.176 184.728 393.152 183.56 394.464 183.56C395.696 183.56 396.464 184.296 396.464 185.576V191H397.808V185.464C397.808 183.624 396.768 182.328 394.832 182.328C393.6 182.328 392.608 182.968 392.176 183.736H392.112L392.176 182.584V178.584H390.832V191H392.176ZM402.946 191.256C404.098 191.256 405.042 190.68 405.442 189.896H405.506V191H406.786V182.584H405.442V187.64C405.442 188.92 404.626 190.024 403.266 190.024C402.178 190.024 401.346 189.464 401.346 187.992V182.584H400.002V188.168C400.002 190.072 401.074 191.256 402.946 191.256ZM411.899 191.256C413.739 191.256 415.163 190.232 415.163 188.68C415.163 187.272 414.299 186.504 412.779 186.2L411.595 185.96C410.491 185.72 409.995 185.336 409.995 184.696C409.995 183.976 410.779 183.528 411.755 183.528C412.651 183.528 413.419 183.88 413.627 184.824L414.875 184.632C414.651 182.968 413.275 182.328 411.755 182.328C410.059 182.328 408.635 183.272 408.635 184.712C408.635 186.072 409.643 186.856 411.067 187.112L412.107 187.304C413.243 187.512 413.819 187.992 413.819 188.728C413.819 189.576 412.971 190.056 411.899 190.056C410.667 190.056 409.931 189.336 409.755 188.488L408.459 188.712C408.651 190.344 410.171 191.256 411.899 191.256ZM417.441 180.536C418.001 180.536 418.417 180.088 418.417 179.56C418.417 179 418.001 178.584 417.441 178.584C416.913 178.584 416.465 179 416.465 179.56C416.465 180.088 416.913 180.536 417.441 180.536ZM418.113 191V182.584H416.769V191H418.113ZM422.892 191.256C424.284 191.256 425.148 190.552 425.596 189.896H425.66V191H426.956V185.496C426.956 183.496 425.692 182.328 423.5 182.328C421.788 182.328 420.46 183.24 420.156 184.728L421.372 185.032C421.644 184.04 422.364 183.544 423.5 183.544C424.764 183.544 425.66 184.312 425.66 185.528V186.456C424.908 186.2 424.172 186.088 423.164 186.088C421.468 186.088 419.98 186.952 419.98 188.648C419.98 190.248 421.164 191.256 422.892 191.256ZM423.132 190.072C422.108 190.072 421.356 189.496 421.356 188.648C421.356 187.608 422.188 187.176 423.404 187.176C424.156 187.176 424.908 187.32 425.66 187.592C425.66 189.016 424.588 190.072 423.132 190.072ZM431.961 191.256C433.801 191.256 435.225 190.232 435.225 188.68C435.225 187.272 434.361 186.504 432.841 186.2L431.657 185.96C430.553 185.72 430.057 185.336 430.057 184.696C430.057 183.976 430.841 183.528 431.817 183.528C432.713 183.528 433.481 183.88 433.689 184.824L434.937 184.632C434.713 182.968 433.337 182.328 431.817 182.328C430.121 182.328 428.697 183.272 428.697 184.712C428.697 186.072 429.705 186.856 431.129 187.112L432.169 187.304C433.305 187.512 433.881 187.992 433.881 188.728C433.881 189.576 433.033 190.056 431.961 190.056C430.729 190.056 429.993 189.336 429.817 188.488L428.521 188.712C428.713 190.344 430.233 191.256 431.961 191.256ZM439.728 191.128C440.24 191.128 440.528 191.048 440.8 190.936V189.624C440.56 189.768 440.32 189.864 439.952 189.864C439.232 189.864 438.864 189.4 438.864 188.584V183.816H440.768V182.584H438.864V180.28H437.52V182.584H436.192V183.816H437.52V188.856C437.52 190.28 438.4 191.128 439.728 191.128ZM449.491 191L451.443 184.216L453.395 191H454.739L457.155 182.584H455.827L454.083 189.16H454.067L452.163 182.584H450.787L448.883 189.176H448.867L447.123 182.584H445.763L448.179 191H449.491ZM459.895 191V186.12C459.895 184.728 460.871 183.56 462.183 183.56C463.415 183.56 464.183 184.296 464.183 185.576V191H465.527V185.464C465.527 183.624 464.487 182.328 462.551 182.328C461.319 182.328 460.327 182.968 459.895 183.736H459.831L459.895 182.584V178.584H458.551V191H459.895ZM471.321 191.256C473.785 191.256 475.321 189.416 475.321 186.792C475.321 184.152 473.785 182.328 471.321 182.328C468.857 182.328 467.289 184.152 467.289 186.792C467.289 189.416 468.857 191.256 471.321 191.256ZM471.321 190.024C469.769 190.024 468.633 188.84 468.633 186.792C468.633 184.744 469.769 183.56 471.321 183.56C472.905 183.56 473.977 184.744 473.977 186.792C473.977 188.84 472.905 190.024 471.321 190.024ZM482.598 191V178.584H481.254V191H482.598ZM488.399 191.256C490.863 191.256 492.399 189.416 492.399 186.792C492.399 184.152 490.863 182.328 488.399 182.328C485.935 182.328 484.367 184.152 484.367 186.792C484.367 189.416 485.935 191.256 488.399 191.256ZM488.399 190.024C486.847 190.024 485.711 188.84 485.711 186.792C485.711 184.744 486.847 183.56 488.399 183.56C489.983 183.56 491.055 184.744 491.055 186.792C491.055 188.84 489.983 190.024 488.399 190.024ZM497.508 191L500.58 182.584H499.22L496.852 189.432H496.804L494.468 182.584H493.06L496.1 191H497.508ZM505.114 191.256C507.146 191.256 508.298 190.184 508.634 188.824L507.45 188.504C507.13 189.4 506.506 190.024 505.162 190.024C503.674 190.024 502.666 188.952 502.586 187.048H508.858C508.874 186.856 508.89 186.568 508.89 186.296C508.89 183.848 507.514 182.328 505.098 182.328C502.826 182.328 501.242 184.216 501.242 186.808C501.242 189.336 502.746 191.256 505.114 191.256ZM505.098 183.544C506.682 183.544 507.434 184.472 507.482 185.928H502.65C502.906 184.376 503.818 183.544 505.098 183.544ZM513.649 191.256C515.489 191.256 516.913 190.232 516.913 188.68C516.913 187.272 516.049 186.504 514.529 186.2L513.345 185.96C512.241 185.72 511.745 185.336 511.745 184.696C511.745 183.976 512.529 183.528 513.505 183.528C514.401 183.528 515.169 183.88 515.377 184.824L516.625 184.632C516.401 182.968 515.025 182.328 513.505 182.328C511.809 182.328 510.385 183.272 510.385 184.712C510.385 186.072 511.393 186.856 512.817 187.112L513.857 187.304C514.993 187.512 515.569 187.992 515.569 188.728C515.569 189.576 514.721 190.056 513.649 190.056C512.417 190.056 511.681 189.336 511.505 188.488L510.209 188.712C510.401 190.344 511.921 191.256 513.649 191.256ZM524.051 191V185.768C524.051 184.52 524.867 183.544 525.987 183.544C527.011 183.544 527.619 184.12 527.619 185.384V191H528.963V185.736C528.963 184.504 529.763 183.544 530.899 183.544C531.939 183.544 532.531 184.104 532.531 185.368V191H533.859V185.144C533.859 183.416 532.915 182.328 531.251 182.328C530.083 182.328 529.171 182.904 528.675 183.784C528.339 182.888 527.523 182.328 526.387 182.328C525.347 182.328 524.483 182.904 524.051 183.656H523.987V182.584H522.707V191H524.051ZM536.785 180.536C537.345 180.536 537.761 180.088 537.761 179.56C537.761 179 537.345 178.584 536.785 178.584C536.257 178.584 535.809 179 535.809 179.56C535.809 180.088 536.257 180.536 536.785 180.536ZM537.457 191V182.584H536.113V191H537.457ZM541.114 191V185.944C541.114 184.648 541.946 183.56 543.29 183.56C544.378 183.56 545.21 184.12 545.21 185.592V191H546.554V185.416C546.554 183.512 545.514 182.328 543.61 182.328C542.458 182.328 541.514 182.904 541.114 183.688H541.05V182.584H539.77V191H541.114ZM549.488 180.536C550.048 180.536 550.464 180.088 550.464 179.56C550.464 179 550.048 178.584 549.488 178.584C548.96 178.584 548.512 179 548.512 179.56C548.512 180.088 548.96 180.536 549.488 180.536ZM550.16 191V182.584H548.816V191H550.16ZM553.817 191V185.768C553.817 184.52 554.633 183.544 555.753 183.544C556.777 183.544 557.385 184.12 557.385 185.384V191H558.729V185.736C558.729 184.504 559.529 183.544 560.665 183.544C561.705 183.544 562.297 184.104 562.297 185.368V191H563.625V185.144C563.625 183.416 562.681 182.328 561.017 182.328C559.849 182.328 558.937 182.904 558.441 183.784C558.105 182.888 557.289 182.328 556.153 182.328C555.113 182.328 554.249 182.904 553.817 183.656H553.753V182.584H552.473V191H553.817ZM568.36 191.256C569.752 191.256 570.616 190.552 571.064 189.896H571.128V191H572.424V185.496C572.424 183.496 571.16 182.328 568.968 182.328C567.256 182.328 565.928 183.24 565.624 184.728L566.84 185.032C567.112 184.04 567.832 183.544 568.968 183.544C570.232 183.544 571.128 184.312 571.128 185.528V186.456C570.376 186.2 569.64 186.088 568.632 186.088C566.936 186.088 565.448 186.952 565.448 188.648C565.448 190.248 566.632 191.256 568.36 191.256ZM568.6 190.072C567.576 190.072 566.824 189.496 566.824 188.648C566.824 187.608 567.656 187.176 568.872 187.176C569.624 187.176 570.376 187.32 571.128 187.592C571.128 189.016 570.056 190.072 568.6 190.072ZM576.004 191V178.584H574.66V191H576.004ZM579.004 180.536C579.564 180.536 579.98 180.088 579.98 179.56C579.98 179 579.564 178.584 579.004 178.584C578.476 178.584 578.028 179 578.028 179.56C578.028 180.088 578.476 180.536 579.004 180.536ZM579.676 191V182.584H578.332V191H579.676ZM584.836 191.256C586.676 191.256 588.1 190.232 588.1 188.68C588.1 187.272 587.236 186.504 585.716 186.2L584.532 185.96C583.428 185.72 582.932 185.336 582.932 184.696C582.932 183.976 583.716 183.528 584.692 183.528C585.588 183.528 586.356 183.88 586.564 184.824L587.812 184.632C587.588 182.968 586.212 182.328 584.692 182.328C582.996 182.328 581.572 183.272 581.572 184.712C581.572 186.072 582.58 186.856 584.004 187.112L585.044 187.304C586.18 187.512 586.756 187.992 586.756 188.728C586.756 189.576 585.908 190.056 584.836 190.056C583.604 190.056 582.868 189.336 582.692 188.488L581.396 188.712C581.588 190.344 583.108 191.256 584.836 191.256ZM592.603 191.128C593.115 191.128 593.403 191.048 593.675 190.936V189.624C593.435 189.768 593.195 189.864 592.827 189.864C592.107 189.864 591.739 189.4 591.739 188.584V183.816H593.643V182.584H591.739V180.28H590.395V182.584H589.067V183.816H590.395V188.856C590.395 190.28 591.275 191.128 592.603 191.128ZM602.846 191.256C604.11 191.256 605.102 190.568 605.502 189.816H605.566V191H606.846V178.584H605.502V182.584L605.566 183.736H605.502C605.102 183.016 604.11 182.328 602.83 182.328C600.558 182.328 599.086 184.152 599.086 186.792C599.086 189.416 600.574 191.256 602.846 191.256ZM602.99 190.024C601.47 190.024 600.43 188.888 600.43 186.792C600.43 184.696 601.47 183.56 602.99 183.56C604.51 183.56 605.566 184.696 605.566 186.792C605.566 188.888 604.51 190.024 602.99 190.024ZM612.474 191.256C614.506 191.256 615.658 190.184 615.994 188.824L614.81 188.504C614.49 189.4 613.866 190.024 612.522 190.024C611.034 190.024 610.026 188.952 609.946 187.048H616.218C616.234 186.856 616.25 186.568 616.25 186.296C616.25 183.848 614.874 182.328 612.458 182.328C610.186 182.328 608.602 184.216 608.602 186.808C608.602 189.336 610.106 191.256 612.474 191.256ZM612.458 183.544C614.042 183.544 614.794 184.472 614.842 185.928H610.01C610.266 184.376 611.178 183.544 612.458 183.544ZM621.008 191.256C622.848 191.256 624.272 190.232 624.272 188.68C624.272 187.272 623.408 186.504 621.888 186.2L620.704 185.96C619.6 185.72 619.104 185.336 619.104 184.696C619.104 183.976 619.888 183.528 620.864 183.528C621.76 183.528 622.528 183.88 622.736 184.824L623.984 184.632C623.76 182.968 622.384 182.328 620.864 182.328C619.168 182.328 617.744 183.272 617.744 184.712C617.744 186.072 618.752 186.856 620.176 187.112L621.216 187.304C622.352 187.512 622.928 187.992 622.928 188.728C622.928 189.576 622.08 190.056 621.008 190.056C619.776 190.056 619.04 189.336 618.864 188.488L617.568 188.712C617.76 190.344 619.28 191.256 621.008 191.256ZM626.551 180.536C627.111 180.536 627.527 180.088 627.527 179.56C627.527 179 627.111 178.584 626.551 178.584C626.023 178.584 625.575 179 625.575 179.56C625.575 180.088 626.023 180.536 626.551 180.536ZM627.223 191V182.584H625.879V191H627.223ZM632.833 194.712C635.009 194.712 636.593 193.432 636.593 190.712V182.584H635.313V183.72H635.249C634.785 182.904 633.825 182.328 632.609 182.328C630.593 182.328 628.961 183.832 628.961 186.632C628.961 189.416 630.593 190.936 632.513 190.936C633.857 190.936 634.737 190.344 635.249 189.432H635.313V190.696C635.313 192.424 634.497 193.48 632.833 193.48C631.617 193.48 630.865 192.792 630.593 191.912L629.329 192.232C629.617 193.56 630.913 194.712 632.833 194.712ZM632.817 189.704C631.473 189.704 630.289 188.712 630.289 186.632C630.289 184.552 631.473 183.56 632.817 183.56C634.177 183.56 635.313 184.552 635.313 186.632C635.313 188.712 634.177 189.704 632.817 189.704ZM640.254 191V185.944C640.254 184.648 641.086 183.56 642.43 183.56C643.518 183.56 644.35 184.12 644.35 185.592V191H645.694V185.416C645.694 183.512 644.654 182.328 642.75 182.328C641.598 182.328 640.654 182.904 640.254 183.688H640.19V182.584H638.91V191H640.254ZM648.869 191.096C649.429 191.096 649.893 190.632 649.893 190.072C649.893 189.512 649.429 189.048 648.869 189.048C648.309 189.048 647.845 189.512 647.845 190.072C647.845 190.632 648.309 191.096 648.869 191.096Z"
        fill="#94A3B8"
      />
    </g>
    <!-- #endregion -->

    <!-- #region additional  -->
    <g class="animate-fade-in-right additional">
      <g class="additional__indicator animate-fade-in">
        <circle cx="373" cy="215" r="5" fill="#FCFBFF" class="animate-ping" />
        <circle cx="373" cy="215" r="3" fill="#C4B5FD" />
      </g>
      <g class="additional__text">
        <path
          d="M386.132 219L389.156 210.06H391.628L394.652 219H392.624L392.024 217.176H388.748L388.148 219H386.132ZM389.264 215.556H391.508L390.14 211.332H390.644L389.264 215.556ZM397.501 219L394.441 210.06H396.481L398.785 217.236H398.377L400.681 210.06H402.721L399.661 219H397.501ZM402.503 219L405.527 210.06H407.999L411.023 219H408.995L408.395 217.176H405.119L404.519 219H402.503ZM405.635 215.556H407.879L406.511 211.332H407.015L405.635 215.556ZM411.952 219V210.06H413.812V219H411.952ZM415.397 219V210.06H417.257V217.38H421.037V219H415.397ZM421.3 219L424.324 210.06H426.796L429.82 219H427.792L427.192 217.176H423.916L423.316 219H421.3ZM424.432 215.556H426.676L425.308 211.332H425.812L424.432 215.556ZM430.749 219V210.06H434.529C435.145 210.06 435.673 210.164 436.113 210.372C436.553 210.58 436.889 210.88 437.121 211.272C437.353 211.656 437.469 212.124 437.469 212.676C437.469 213.068 437.361 213.444 437.145 213.804C436.929 214.156 436.573 214.452 436.077 214.692V213.78C436.549 213.964 436.913 214.184 437.169 214.44C437.425 214.696 437.601 214.976 437.697 215.28C437.793 215.576 437.841 215.888 437.841 216.216C437.841 217.096 437.549 217.78 436.965 218.268C436.381 218.756 435.569 219 434.529 219H430.749ZM432.609 217.38H434.745C435.121 217.38 435.421 217.272 435.645 217.056C435.869 216.84 435.981 216.56 435.981 216.216C435.981 215.864 435.869 215.58 435.645 215.364C435.421 215.148 435.121 215.04 434.745 215.04H432.609V217.38ZM432.609 213.42H434.661C434.949 213.42 435.177 213.34 435.345 213.18C435.521 213.012 435.609 212.792 435.609 212.52C435.609 212.248 435.521 212.032 435.345 211.872C435.177 211.704 434.949 211.62 434.661 211.62H432.609V213.42ZM439.034 219V210.06H440.894V217.38H444.674V219H439.034ZM445.597 219V210.06H451.609V211.68H447.457V213.708H451.369V215.328H447.457V217.38H451.609V219H445.597ZM454.819 219V210.06H460.939V211.68H456.679V213.948H460.339V215.568H456.679V219H454.819ZM466.221 219.144C465.549 219.144 464.925 219.028 464.349 218.796C463.773 218.564 463.269 218.24 462.837 217.824C462.413 217.4 462.081 216.908 461.841 216.348C461.601 215.788 461.481 215.18 461.481 214.524C461.481 213.868 461.597 213.26 461.829 212.7C462.069 212.14 462.401 211.652 462.825 211.236C463.257 210.82 463.761 210.496 464.337 210.264C464.913 210.032 465.541 209.916 466.221 209.916C466.901 209.916 467.529 210.032 468.105 210.264C468.681 210.496 469.181 210.82 469.605 211.236C470.037 211.652 470.369 212.14 470.601 212.7C470.841 213.26 470.961 213.868 470.961 214.524C470.961 215.18 470.841 215.788 470.601 216.348C470.361 216.908 470.025 217.4 469.593 217.824C469.169 218.24 468.669 218.564 468.093 218.796C467.517 219.028 466.893 219.144 466.221 219.144ZM466.221 217.464C466.629 217.464 467.005 217.392 467.349 217.248C467.701 217.104 468.009 216.904 468.273 216.648C468.537 216.384 468.741 216.072 468.885 215.712C469.029 215.352 469.101 214.956 469.101 214.524C469.101 214.092 469.029 213.7 468.885 213.348C468.741 212.988 468.537 212.676 468.273 212.412C468.009 212.148 467.701 211.948 467.349 211.812C467.005 211.668 466.629 211.596 466.221 211.596C465.813 211.596 465.433 211.668 465.081 211.812C464.737 211.948 464.433 212.148 464.169 212.412C463.905 212.676 463.701 212.988 463.557 213.348C463.413 213.7 463.341 214.092 463.341 214.524C463.341 214.956 463.413 215.352 463.557 215.712C463.701 216.072 463.905 216.384 464.169 216.648C464.433 216.904 464.737 217.104 465.081 217.248C465.433 217.392 465.813 217.464 466.221 217.464ZM472.28 219V210.06H475.7C476.316 210.06 476.86 210.168 477.332 210.384C477.812 210.6 478.188 210.92 478.46 211.344C478.732 211.768 478.868 212.292 478.868 212.916C478.868 213.524 478.728 214.044 478.448 214.476C478.168 214.9 477.792 215.22 477.32 215.436L479.36 219H477.272L475.064 215.052L476.264 215.76H474.14V219H472.28ZM474.14 214.14H475.712C475.976 214.14 476.204 214.088 476.396 213.984C476.588 213.88 476.736 213.736 476.84 213.552C476.952 213.368 477.008 213.156 477.008 212.916C477.008 212.668 476.952 212.452 476.84 212.268C476.736 212.084 476.588 211.94 476.396 211.836C476.204 211.732 475.976 211.68 475.712 211.68H474.14V214.14ZM482.44 219V210.06H484.3V213.924H487.78V210.06H489.64V219H487.78V215.544H484.3V219H482.44ZM491.229 219V210.06H493.09V219H491.229ZM494.675 219V210.06H498.095C498.711 210.06 499.255 210.168 499.727 210.384C500.207 210.6 500.583 210.92 500.855 211.344C501.127 211.768 501.263 212.292 501.263 212.916C501.263 213.524 501.123 214.044 500.843 214.476C500.563 214.9 500.187 215.22 499.715 215.436L501.755 219H499.667L497.459 215.052L498.659 215.76H496.535V219H494.675ZM496.535 214.14H498.107C498.371 214.14 498.599 214.088 498.791 213.984C498.983 213.88 499.131 213.736 499.235 213.552C499.347 213.368 499.403 213.156 499.403 212.916C499.403 212.668 499.347 212.452 499.235 212.268C499.131 212.084 498.983 211.94 498.791 211.836C498.599 211.732 498.371 211.68 498.107 211.68H496.535V214.14ZM502.679 219V210.06H508.691V211.68H504.539V213.708H508.451V215.328H504.539V217.38H508.691V219H502.679Z"
          fill="#C4B5FD"
        />
      </g>
    </g>
    <!-- #endregion -->
  </g>

  <!-- #region defs -->
  <defs>
    <linearGradient
      id="paint0_linear_1_2"
      x1="448"
      y1="0"
      x2="448"
      y2="288"
      gradientUnits="userSpaceOnUse"
    >
      <!-- <stop stop-color="#0F172A" /> -->
      <stop stop-color="#000" />
      <stop offset="1" stop-color="#000" stop-opacity="0" />
    </linearGradient>
    <linearGradient
      id="paint1_linear_1_2"
      x1="448"
      y1="0"
      x2="448"
      y2="288"
      gradientUnits="userSpaceOnUse"
    >
      <stop />
      <stop offset="1" stop-opacity="0" />
    </linearGradient>
    <clipPath id="clip0_1_2">
      <path
        d="M0 32C0 14.3269 14.3269 0 32 0H864C881.673 0 896 14.3269 896 32V288H0V32Z"
        fill="white"
      />
    </clipPath>
  </defs>
  <!-- #endregion -->
</svg>
